<svg width="12" height="12" viewBox="0 0 12 12" fill="none" xmlns="http://www.w3.org/2000/svg">
<path d="M8 1C8.12247 1.00002 8.24067 1.04498 8.33219 1.12636C8.4237 1.20774 8.48217 1.31987 8.4965 1.4415L8.5 1.5V2H9C9.38261 1.99998 9.75076 2.14616 10.0291 2.40864C10.3075 2.67112 10.4751 3.03005 10.4975 3.412L10.5 3.5V9.5C10.5 9.88261 10.3538 10.2508 10.0914 10.5291C9.82888 10.8075 9.46995 10.9751 9.088 10.9975L9 11H3C2.61739 11 2.24924 10.8538 1.97087 10.5914C1.6925 10.3289 1.52495 9.96995 1.5025 9.588L1.5 9.5V3.5C1.49998 3.11739 1.64616 2.74924 1.90864 2.47087C2.17112 2.1925 2.53005 2.02495 2.912 2.0025L3 2H3.5V1.5C3.50014 1.37256 3.54894 1.24998 3.63642 1.15732C3.72391 1.06465 3.84348 1.00888 3.9707 1.00141C4.09792 0.993945 4.22319 1.03534 4.32092 1.11713C4.41864 1.19893 4.48145 1.31495 4.4965 1.4415L4.5 1.5V2H7.5V1.5C7.5 1.36739 7.55268 1.24021 7.64645 1.14645C7.74021 1.05268 7.86739 1 8 1ZM9.5 4.5H2.5V9.3125C2.5 9.665 2.693 9.9555 2.9415 9.9955L3 10H9C9.2565 10 9.468 9.735 9.4965 9.3925L9.5 9.3125V4.5Z" fill="#141412"/>
<path d="M6 6C6.12246 6.00002 6.24066 6.04498 6.33218 6.12636C6.4237 6.20774 6.48217 6.31987 6.4965 6.4415L6.5 6.5V8C6.49985 8.12744 6.45106 8.25002 6.36357 8.34268C6.27609 8.43535 6.15652 8.49112 6.0293 8.49859C5.90208 8.50605 5.77681 8.46466 5.67908 8.38287C5.58135 8.30107 5.51855 8.18505 5.5035 8.0585L5.5 8V7C5.37256 6.99986 5.24998 6.95106 5.15731 6.86358C5.06464 6.77609 5.00888 6.65652 5.00141 6.5293C4.99394 6.40208 5.03533 6.27681 5.11713 6.17908C5.19892 6.08136 5.31495 6.01855 5.4415 6.0035L5.5 6H6Z" fill="#141412"/>
</svg>
