<svg width="12" height="12" viewBox="0 0 12 12" fill="none" xmlns="http://www.w3.org/2000/svg">
<path d="M10.485 3.10073L6.36 0.843697C6.24978 0.782798 6.12592 0.750854 6 0.750854C5.87408 0.750854 5.75022 0.782798 5.64 0.843697L1.515 3.10167C1.3972 3.16612 1.29886 3.26102 1.23026 3.37646C1.16166 3.4919 1.1253 3.62363 1.125 3.75792V8.24104C1.1253 8.37532 1.16166 8.50706 1.23026 8.6225C1.29886 8.73793 1.3972 8.83284 1.515 8.89729L5.64 11.1553C5.75022 11.2162 5.87408 11.2481 6 11.2481C6.12592 11.2481 6.24978 11.2162 6.36 11.1553L10.485 8.89729C10.6028 8.83284 10.7011 8.73793 10.7697 8.6225C10.8383 8.50706 10.8747 8.37532 10.875 8.24104V3.75838C10.8749 3.62386 10.8387 3.49183 10.7701 3.37613C10.7015 3.26042 10.603 3.1653 10.485 3.10073ZM6 1.49995L9.76641 3.56245L8.37047 4.32604L4.60406 2.26354L6 1.49995ZM6 5.62495L2.23359 3.56245L3.82312 2.69198L7.58953 4.75448L6 5.62495ZM10.125 8.24292L6.375 10.2956V6.27323L7.875 5.45245V7.12495C7.875 7.2244 7.91451 7.31979 7.98483 7.39011C8.05516 7.46044 8.15054 7.49995 8.25 7.49995C8.34946 7.49995 8.44484 7.46044 8.51517 7.39011C8.58549 7.31979 8.625 7.2244 8.625 7.12495V5.04182L10.125 4.22104V8.24104V8.24292Z" fill="#141412"/>
</svg>
