<svg width="12" height="12" viewBox="0 0 12 12" fill="none" xmlns="http://www.w3.org/2000/svg">
<path d="M9.447 8.69695L6.79575 11.3489C6.69127 11.4535 6.56722 11.5364 6.43068 11.593C6.29415 11.6496 6.1478 11.6787 6 11.6787C5.8522 11.6787 5.70585 11.6496 5.56931 11.593C5.43277 11.5364 5.30872 11.4535 5.20425 11.3489L2.553 8.69695C2.10028 8.24428 1.74116 7.70688 1.49613 7.11542C1.25111 6.52396 1.12497 5.89004 1.12494 5.24984C1.1249 4.60963 1.25097 3.97569 1.49593 3.38421C1.74089 2.79273 2.09996 2.25529 2.55262 1.80257C3.00529 1.34986 3.54269 0.990732 4.13415 0.745705C4.72561 0.500678 5.35953 0.374547 5.99973 0.374512C6.63994 0.374477 7.27388 0.50054 7.86536 0.745502C8.45684 0.990465 8.99428 1.34953 9.447 1.8022C9.89975 2.25489 10.2589 2.79233 10.5039 3.38384C10.749 3.97534 10.8751 4.60932 10.8751 5.24957C10.8751 5.88982 10.749 6.5238 10.5039 7.1153C10.2589 7.70681 9.89975 8.24425 9.447 8.69695ZM8.652 2.59795C8.30373 2.24968 7.89028 1.97342 7.43525 1.78494C6.98022 1.59646 6.49252 1.49945 6 1.49945C5.50748 1.49945 5.01978 1.59646 4.56475 1.78494C4.10972 1.97342 3.69626 2.24968 3.348 2.59795C2.99973 2.94621 2.72347 3.35966 2.53499 3.81469C2.34651 4.26972 2.2495 4.75742 2.2495 5.24995C2.2495 5.74247 2.34651 6.23017 2.53499 6.6852C2.72347 7.14023 2.99973 7.55368 3.348 7.90195L6 10.5524L8.652 7.90195C9.00032 7.55371 9.27663 7.14027 9.46515 6.68524C9.65367 6.2302 9.7507 5.74249 9.7507 5.24995C9.7507 4.75741 9.65367 4.26969 9.46515 3.81465C9.27663 3.35962 9.00032 2.94618 8.652 2.59795ZM6 6.74995C5.80024 6.75446 5.6016 6.71903 5.41573 6.64572C5.22986 6.57241 5.06051 6.4627 4.91762 6.32304C4.77473 6.18338 4.66118 6.01658 4.58364 5.83244C4.5061 5.64829 4.46614 5.45051 4.46609 5.2507C4.46604 5.0509 4.50591 4.8531 4.58335 4.66891C4.6608 4.48473 4.77426 4.31787 4.91708 4.17814C5.0599 4.03841 5.2292 3.92862 5.41503 3.85522C5.60087 3.78181 5.79949 3.74628 5.99925 3.7507C6.39117 3.75936 6.76412 3.92111 7.03828 4.20133C7.31243 4.48154 7.46599 4.85794 7.46609 5.24995C7.46618 5.64197 7.31281 6.01845 7.0388 6.2988C6.76479 6.57914 6.39191 6.74108 6 6.74995Z" fill="#141412"/>
</svg>
