<svg width="13" height="13" viewBox="0 0 13 13" fill="none" xmlns="http://www.w3.org/2000/svg">
<path d="M6.49999 8.45005C7.01716 8.45005 7.51315 8.2446 7.87885 7.87891C8.24454 7.51321 8.44999 7.01722 8.44999 6.50005C8.44999 5.98288 8.24454 5.48689 7.87885 5.12119C7.51315 4.75549 7.01716 4.55005 6.49999 4.55005C5.98282 4.55005 5.48683 4.75549 5.12113 5.12119C4.75543 5.48689 4.54999 5.98288 4.54999 6.50005C4.54999 7.01722 4.75543 7.51321 5.12113 7.87891C5.48683 8.2446 5.98282 8.45005 6.49999 8.45005ZM6.82499 1.62505C6.82499 1.53885 6.79075 1.45619 6.7298 1.39524C6.66885 1.33429 6.58618 1.30005 6.49999 1.30005C6.41379 1.30005 6.33113 1.33429 6.27018 1.39524C6.20923 1.45619 6.17499 1.53885 6.17499 1.62505V2.61305C5.25596 2.68978 4.39386 3.0897 3.74175 3.74181C3.08964 4.39392 2.68972 5.25602 2.61299 6.17505H1.62499C1.53879 6.17505 1.45613 6.20929 1.39518 6.27024C1.33423 6.33119 1.29999 6.41385 1.29999 6.50005C1.29999 6.58624 1.33423 6.66891 1.39518 6.72986C1.45613 6.79081 1.53879 6.82505 1.62499 6.82505H2.61299C2.68972 7.74407 3.08964 8.60618 3.74175 9.25829C4.39386 9.9104 5.25596 10.3103 6.17499 10.387V11.375C6.17499 11.4612 6.20923 11.5439 6.27018 11.6049C6.33113 11.6658 6.41379 11.7 6.49999 11.7C6.58618 11.7 6.66885 11.6658 6.7298 11.6049C6.79075 11.5439 6.82499 11.4612 6.82499 11.375V10.387C7.74401 10.3103 8.60612 9.9104 9.25823 9.25829C9.91034 8.60618 10.3103 7.74407 10.387 6.82505H11.375C11.4612 6.82505 11.5438 6.79081 11.6048 6.72986C11.6657 6.66891 11.7 6.58624 11.7 6.50005C11.7 6.41385 11.6657 6.33119 11.6048 6.27024C11.5438 6.20929 11.4612 6.17505 11.375 6.17505H10.387C10.3103 5.25602 9.91034 4.39392 9.25823 3.74181C8.60612 3.0897 7.74401 2.68978 6.82499 2.61305V1.62505ZM6.49999 9.75005C5.63803 9.75005 4.81138 9.40764 4.20189 8.79815C3.5924 8.18865 3.24999 7.362 3.24999 6.50005C3.24999 5.6381 3.5924 4.81144 4.20189 4.20195C4.81138 3.59246 5.63803 3.25005 6.49999 3.25005C7.36194 3.25005 8.18859 3.59246 8.79808 4.20195C9.40758 4.81144 9.74999 5.6381 9.74999 6.50005C9.74999 7.362 9.40758 8.18865 8.79808 8.79815C8.18859 9.40764 7.36194 9.75005 6.49999 9.75005Z" fill="#141412"/>
</svg>
