<svg width="12" height="12" viewBox="0 0 12 12" fill="none" xmlns="http://www.w3.org/2000/svg">
<path d="M1 1.5H1.5C1.76522 1.5 2.01957 1.60536 2.20711 1.79289C2.39464 1.98043 2.5 2.23478 2.5 2.5V7.5C2.5 7.76522 2.60536 8.01957 2.79289 8.20711C2.98043 8.39464 3.23478 8.5 3.5 8.5H11" stroke="#141412" stroke-linecap="round" stroke-linejoin="round"/>
<path d="M4.5 4.5C4.5 4.10218 4.65804 3.72064 4.93934 3.43934C5.22064 3.15804 5.60218 3 6 3H8C8.39782 3 8.77936 3.15804 9.06066 3.43934C9.34196 3.72064 9.5 4.10218 9.5 4.5V5.5C9.5 5.89782 9.34196 6.27936 9.06066 6.56066C8.77936 6.84196 8.39782 7 8 7H6C5.60218 7 5.22064 6.84196 4.93934 6.56066C4.65804 6.27936 4.5 5.89782 4.5 5.5V4.5ZM3.5 9.5C3.5 9.76522 3.60536 10.0196 3.79289 10.2071C3.98043 10.3946 4.23478 10.5 4.5 10.5C4.76522 10.5 5.01957 10.3946 5.20711 10.2071C5.39464 10.0196 5.5 9.76522 5.5 9.5C5.5 9.23478 5.39464 8.98043 5.20711 8.79289C5.01957 8.60536 4.76522 8.5 4.5 8.5C4.23478 8.5 3.98043 8.60536 3.79289 8.79289C3.60536 8.98043 3.5 9.23478 3.5 9.5ZM8 9.5C8 9.76522 8.10536 10.0196 8.29289 10.2071C8.48043 10.3946 8.73478 10.5 9 10.5C9.26522 10.5 9.51957 10.3946 9.70711 10.2071C9.89464 10.0196 10 9.76522 10 9.5C10 9.23478 9.89464 8.98043 9.70711 8.79289C9.51957 8.60536 9.26522 8.5 9 8.5C8.73478 8.5 8.48043 8.60536 8.29289 8.79289C8.10536 8.98043 8 9.23478 8 9.5Z" stroke="#141412" stroke-linecap="round" stroke-linejoin="round"/>
<rect x="5" y="3" width="4" height="4" fill="#141412"/>
</svg>
